<svg width="1315" height="1414" viewBox="0 0 1315 1414" fill="none" xmlns="http://www.w3.org/2000/svg">
<path d="M332.48 8H982.16C1025.24 8 1066.55 24.3654 1097.01 53.496C1127.47 82.6267 1144.58 122.136 1144.58 163.333V304.686C1144.58 364.972 1159.26 424.429 1187.46 478.349L1264.12 624.984C1292.32 678.903 1307 738.36 1307 798.646V1250.67C1307 1291.86 1289.89 1331.37 1259.43 1360.5C1228.97 1389.63 1187.66 1406 1144.58 1406H170.06C126.983 1406 85.6713 1389.63 55.2116 1360.5C24.7519 1331.37 7.63989 1291.86 7.63989 1250.67V798.646C7.64418 738.36 22.3247 678.903 50.5188 624.984L170.06 396.333V163.333C170.06 122.136 187.172 82.6267 217.632 53.496C248.091 24.3654 289.403 8 332.48 8Z" fill="#E53352" stroke="#636363" strokeWidth="15" strokeLinecap="round" stroke-linejoin="round"/>
<path d="M170.057 1406C213.133 1406 254.446 1389.63 284.905 1360.5C315.365 1331.37 332.477 1291.86 332.477 1250.67V798.647C332.473 738.361 317.792 678.904 289.598 624.984L170.057 396.334M391.183 318.667H915.623" stroke="#636363" strokeWidth="15" strokeLinecap="round" stroke-linejoin="round"/>
</svg>
