<svg width="298" height="334" viewBox="0 0 298 334" fill="none" xmlns="http://www.w3.org/2000/svg">
<path d="M77 5H221C230.548 5 239.705 8.79284 246.456 15.5442C253.207 22.2955 257 31.4522 257 41V73.76C257.001 87.7318 260.255 101.512 266.504 114.008L283.496 147.992C289.745 160.488 292.999 174.268 293 188.24V293C293 302.548 289.207 311.705 282.456 318.456C275.705 325.207 266.548 329 257 329H41C31.4522 329 22.2955 325.207 15.5442 318.456C8.79284 311.705 5 302.548 5 293V188.24C5.00095 174.268 8.25484 160.488 14.504 147.992L41 95V41C41 31.4522 44.7928 22.2955 51.5442 15.5442C58.2955 8.79284 67.4522 5 77 5Z" stroke="#F74040" strokeWidth="10" strokeLinecap="round" stroke-linejoin="round"/>
<path d="M41 329C50.5478 329 59.7045 325.207 66.4558 318.456C73.2072 311.705 77 302.548 77 293V188.24C76.9991 174.268 73.7452 160.488 67.496 147.992L41 95M131 77H167M149 221C149 230.548 152.793 239.705 159.544 246.456C166.295 253.207 175.452 257 185 257C194.548 257 203.705 253.207 210.456 246.456C217.207 239.705 221 230.548 221 221C221 211.452 217.207 202.295 210.456 195.544C203.705 188.793 194.548 185 185 185C175.452 185 166.295 188.793 159.544 195.544C152.793 202.295 149 211.452 149 221Z" stroke="#F74040" strokeWidth="10" strokeLinecap="round" stroke-linejoin="round"/>
</svg>
