<svg width="359" height="403" viewBox="0 0 359 403" fill="none" xmlns="http://www.w3.org/2000/svg">
<path d="M92.25 5H266.75C278.32 5 289.416 9.60058 297.598 17.7897C305.779 25.9788 310.375 37.0855 310.375 48.6667V88.4033C310.376 105.351 314.319 122.065 321.892 137.223L342.483 178.444C350.056 193.602 353.999 210.316 354 227.263V354.333C354 365.914 349.404 377.021 341.223 385.21C333.041 393.399 321.945 398 310.375 398H48.625C37.0549 398 25.9587 393.399 17.7775 385.21C9.59619 377.021 5 365.914 5 354.333V227.263C5.00115 210.316 8.94423 193.602 16.517 178.444L48.625 114.167V48.6667C48.625 37.0855 53.2212 25.9788 61.4025 17.7897C69.5837 9.60058 80.6799 5 92.25 5Z" stroke="#F74040" strokeWidth="10" strokeLinecap="round" stroke-linejoin="round"/>
<path d="M48.625 398C60.1951 398 71.2913 393.399 79.4725 385.21C87.6538 377.021 92.25 365.914 92.25 354.333V227.263C92.2488 210.316 88.3058 193.602 80.733 178.444L48.625 114.167M157.688 92.3334H201.312M179.5 267C179.5 278.581 184.096 289.688 192.277 297.877C200.459 306.066 211.555 310.667 223.125 310.667C234.695 310.667 245.791 306.066 253.973 297.877C262.154 289.688 266.75 278.581 266.75 267C266.75 255.419 262.154 244.312 253.973 236.123C245.791 227.934 234.695 223.333 223.125 223.333C211.555 223.333 200.459 227.934 192.277 236.123C184.096 244.312 179.5 255.419 179.5 267Z" stroke="#F74040" strokeWidth="10" strokeLinecap="round" stroke-linejoin="round"/>
</svg>
