<svg width="60%" height="60%" viewBox="0 0 83 83" fill="none" xmlns="http://www.w3.org/2000/svg">
<path d="M72.5122 10.6924C69.111 7.50076 64.9946 5.17107 60.5078 3.89853C56.0211 2.62599 51.2948 2.44766 46.7249 3.3785C35.9469 5.27858 26.0439 10.5342 18.4281 18.3957C10.5395 26.015 5.26811 35.939 3.37115 46.7423C2.44778 51.3066 2.62972 56.0256 3.90179 60.5052C5.17385 64.9849 7.4991 69.095 10.6833 72.4923C13.3428 75.0439 16.4843 77.0394 19.924 78.3621C23.3637 79.6848 27.0326 80.3082 30.716 80.1956C43.6356 79.6759 55.8467 74.1509 64.7674 64.7889C81.8103 47.7377 85.2717 23.4592 72.5122 10.6924ZM7.6546 47.3915C9.42038 37.5154 14.2493 28.4458 21.4569 21.4684C28.4209 14.2437 37.4938 9.41077 47.3739 7.66295C49.0638 7.40747 50.7703 7.27729 52.4795 7.27346C55.5933 7.16561 58.6973 7.68039 61.6096 8.78764C64.522 9.8949 67.1842 11.5724 69.4402 13.7218C69.6215 13.8889 69.7814 14.0779 69.9162 14.2844C67.2212 16.6209 64.109 18.427 60.7435 19.6075C55.8824 21.3561 51.4969 24.2162 47.9364 27.96C44.1935 31.5213 41.334 35.9079 39.5858 40.7701C38.0717 45.1045 35.5335 49.0091 32.1871 52.152C29.033 55.4847 25.133 58.0211 20.8078 59.5524C17.0879 60.8773 13.6418 62.872 10.64 65.4381C7.55527 59.9605 6.49826 53.571 7.6546 47.3915ZM61.6954 61.7163C46.3355 77.0797 24.8317 80.5419 13.7553 69.4629C13.5716 69.2855 13.3982 69.0976 13.2361 68.9003C15.952 66.5704 19.077 64.7654 22.452 63.5772C27.2994 61.8011 31.679 58.9448 35.2591 55.2247C38.9932 51.656 41.8512 47.2717 43.6097 42.4146C45.1238 38.0802 47.662 34.1755 51.0084 31.0327C54.1505 27.6855 58.0542 25.1468 62.3877 23.6323C66.0905 22.279 69.52 20.2707 72.5122 17.7033C79.608 29.4401 75.4111 47.9974 61.6954 61.7163Z" fill="#D9A62E" stroke="#D9A62E" strokeWidth="5"/>
</svg>
