<svg width="60%" height="60%" viewBox="0 0 100 100" fill="none" xmlns="http://www.w3.org/2000/svg">
<path d="M50.0358 34.7573C50.0358 29.8073 53.5701 24.8573 60.6437 24.8573C64.3944 24.8573 67.9915 23.3673 70.6437 20.7151C73.2959 18.0629 74.7858 14.4658 74.7858 10.7151V7.53225M30.2358 34.7573V32.2823C30.2358 28.3438 31.8004 24.5666 34.5853 21.7817C37.3702 18.9968 41.1474 17.4323 45.0858 17.4323C47.7115 17.4323 50.2296 16.3892 52.0862 14.5326C53.9428 12.676 54.9858 10.1579 54.9858 7.53225V5.05725M74.7858 47.6273V64.4573C74.7858 72.3342 71.6567 79.8885 66.0869 85.4583C60.5171 91.0282 52.9628 94.1573 45.0858 94.1573H35.1858C27.3089 94.1573 19.7546 91.0282 14.1848 85.4583C8.61494 79.8885 5.48584 72.3342 5.48584 64.4573V47.6273C5.48584 46.8396 5.79875 46.0841 6.35573 45.5271C6.91272 44.9702 7.66815 44.6573 8.45584 44.6573H71.8158C72.6035 44.6573 73.359 44.9702 73.916 45.5271C74.4729 46.0841 74.7858 46.8396 74.7858 47.6273Z" stroke="#D9A62E" strokeWidth="10" strokeLinecap="round" stroke-linejoin="round"/>
<path d="M69.8359 44.657H82.2109C85.493 44.657 88.6406 45.9608 90.9614 48.2815C93.2821 50.6023 94.5859 53.7499 94.5859 57.032C94.5859 60.314 93.2821 63.4617 90.9614 65.7824C88.6406 68.1032 85.493 69.407 82.2109 69.407H74.7859" stroke="#D9A62E" strokeWidth="10" strokeLinecap="round" stroke-linejoin="round"/>
</svg>
