<?xml version="1.0" encoding="UTF-8"?>
<svg id="_レイヤー_1" data-name="レイヤー 1" xmlns="http://www.w3.org/2000/svg" xmlns:xlink="http://www.w3.org/1999/xlink" viewBox="0 0 200 292">
  <defs>
    <style>
      .cls-1 {
        clipPath: url(#clippath);
        fill: #0000FF;
      }

      .cls-2, .cls-3, .cls-4, .cls-5, .cls-6, .cls-7 {
        fill: none;
      }

      .cls-2, .cls-8 {
        strokeWidth: 0px;
      }

      .cls-3 {
        strokeWidth: 5px;
      }

      .cls-3, .cls-9, .cls-4, .cls-5, .cls-6 {
        strokeMiterlimit: 10;
      }

      .cls-3, .cls-9, .cls-4, .cls-5, .cls-6, .cls-7 {
        stroke: #fff;
      }

      .cls-9, .cls-8 {
        fill: #fff;
      }

      .cls-4 {
        strokeWidth: 2px;
      }

      .cls-5, .cls-7 {
        strokeWidth: 4px;
      }

      .cls-7 {
        stroke-linejoin: round;
      }
    </style>
    <clipPath id="clippath">
      <rect class="cls-2" width="200" height="292"/>
    </clipPath>
  </defs>
  <g class="cls-1">
    <g>
      <path class="cls-8" d="m142.12,271.13c-23.78,0-43.13-19.35-43.13-43.13s19.35-43.13,43.13-43.13,43.13,19.35,43.13,43.13-19.35,43.13-43.13,43.13Z"/>
      <path class="cls-8" d="m142.12,196.09c17.61,0,31.93,14.32,31.93,31.91s-14.32,31.92-31.93,31.92-31.93-14.32-31.93-31.92,14.32-31.91,31.93-31.91Zm0-22.43c-30,0-54.32,24.34-54.32,54.35s24.32,54.35,54.32,54.35,54.32-24.33,54.32-54.35-24.32-54.35-54.32-54.35Z"/>
      <path class="cls-8" d="m146.07,155.24H34.76c-1.28,0-2.32,1.04-2.32,2.32v130.17c0,1.28,1.04,2.32,2.32,2.32h111.31c1.28,0,2.32-1.04,2.32-2.32v-130.17c0-1.28-1.04-2.32-2.32-2.32Z"/>
      <path class="cls-8" d="m146.08,156.79c.42,0,.77.35.77.77v130.17c0,.43-.35.77-.77.77H34.76c-.42,0-.77-.35-.77-.77v-130.17c0-.42.35-.77.77-.77h111.31m0-3.09H34.76c-2.13,0-3.86,1.73-3.86,3.87v130.17c0,2.13,1.73,3.87,3.86,3.87h111.31c2.13,0,3.86-1.73,3.86-3.87v-130.17c0-2.13-1.73-3.87-3.86-3.87Z"/>
      <path class="cls-5" d="m20.65,32.12L131.43,1.68"/>
      <path class="cls-5" d="m19.91,30.65l52.97,95.82"/>
      <path class="cls-5" d="m72.15,125.73l22.07,11.8"/>
      <path class="cls-5" d="m92.75,137.53L131.74.43"/>
      <path class="cls-5" d="m124.4,26.38h32.85"/>
      <path class="cls-5" d="m157.49,24.75l-48.74,101.72"/>
      <path class="cls-5" d="m110.41,126.47h-13.98"/>
      <path class="cls-6" d="m193.99,30.17l5.87-2.31"/>
      <path class="cls-9" d="m146.41,206.03H34.58v83.29h111.83v-83.29Z"/>
      <path class="cls-4" d="m34.58,230.39l25.54-23.62"/>
      <path class="cls-4" d="m34.51,254.94l46.42-47.43"/>
      <path class="cls-4" d="m36.58,277.9l67.89-71.13"/>
      <path class="cls-4" d="m45.35,291.26l84.14-84.49"/>
      <path class="cls-4" d="m70.87,289.78l77.48-78.12"/>
      <path class="cls-4" d="m94.85,290.16l53.5-54.18"/>
      <path class="cls-4" d="m116.41,291.46l29.99-30.14"/>
      <path class="cls-3" d="m92.07,156.37v52.61"/>
      <path class="cls-8" d="m25.42,156.26c.38-3.83,6.32-7.34,15.04-8.82h100.7c8.65,1.47,14.6,4.98,14.98,8.82H25.42Z"/>
      <path class="cls-8" d="m141.1,147.84c8.18,1.39,13.85,4.56,14.59,8.04H25.87c.74-3.48,6.42-6.65,14.59-8.04h100.64Zm.06-.77H40.39c-9.01,1.52-15.38,5.24-15.38,9.58h131.53c0-4.35-6.37-8.06-15.38-9.58Z"/>
      <path class="cls-8" d="m69.55,146.26l2.41-3.22L1.79,49.29c-.36-.47-.26-.91-.12-1.18.22-.44.78-.91,1.69-.91h174.71c.91,0,1.47.47,1.69.91.14.28.23.71-.12,1.18l-69.81,93.26,2.77,3.71h-43.04Z"/>
      <path class="cls-8" d="m178.06,48.74h.04l-68.83,91.96-1.39,1.86,1.39,1.86.22.3h-36.85l1.25-1.67-1.39-1.86L3.31,48.74h174.75Zm0-3.09H3.36c-2.67,0-4.26,2.61-2.79,4.57l69.48,92.82-3.57,4.76h49.2l-3.93-5.25,69.11-92.33c1.47-1.96-.13-4.57-2.79-4.57h0Z"/>
      <path class="cls-7" d="m63.37,91.79l24.3-27.17"/>
      <path class="cls-7" d="m71.28,115.15l45.8-53.37"/>
      <path class="cls-7" d="m96.35,115.97l24.3-27.17"/>
    </g>
  </g>
</svg>