<svg width="60%" height="60%" viewBox="0 0 91 97" fill="none" xmlns="http://www.w3.org/2000/svg">
<path d="M51.7933 27.6989L15.521 45.3089H75.9749L65.8992 29.928" stroke="#D9A62E" strokeWidth="9" strokeLinecap="round" stroke-linejoin="round"/>
<path d="M59.8535 34.3862C64.3052 34.3862 67.914 30.3942 67.914 25.4697C67.914 20.5453 64.3052 16.5532 59.8535 16.5532C55.4018 16.5532 51.793 20.5453 51.793 25.4697C51.793 30.3942 55.4018 34.3862 59.8535 34.3862Z" fill="white" stroke="#D9A62E" strokeWidth="9"/>
<path d="M63.8843 16.5531L67.9145 5.40747" stroke="#D9A62E" strokeWidth="9" strokeLinecap="round"/>
<path d="M16.5285 56.5815C15.3154 57.2503 14.1869 57.9636 13.1471 58.7126C8.30277 62.2079 5.44531 66.5123 5.44531 71.1667C5.44531 82.8629 23.4888 92.3434 45.7479 92.3434C68.007 92.3434 86.0505 82.8629 86.0505 71.1667C86.0505 66.3964 83.052 61.9983 77.99 58.4585" stroke="#D9A62E" strokeWidth="9"/>
<path d="M15.521 45.5317H75.9749V72.2812H15.521V45.5317Z" stroke="#D9A62E" strokeWidth="9" strokeLinecap="round" stroke-linejoin="round"/>
<path d="M15.521 45.5317H77.99" stroke="#D9A62E" strokeWidth="9"/>
</svg>
