<svg width="17" height="20" viewBox="0 0 17 20" fill="none" xmlns="http://www.w3.org/2000/svg">
<g clipPath="url(#clip0_148_11)">
<path d="M4.48522 2.0706C6.88651 0.871456 9.34125 2.01077 10.0265 2.32878C12.2788 3.37475 13.3101 5.24094 14.0098 6.50574C14.8292 7.98879 16.4382 10.8994 15.2783 13.9176C15.0661 14.4702 14.2501 16.3545 12.178 17.3498C9.91204 18.4383 7.71644 17.7082 6.95964 17.3986C4.58961 16.4303 3.55367 14.3749 2.70073 12.6833C1.88644 11.0683 0.777365 8.86687 1.44124 6.23805C1.59145 5.64395 2.20676 3.20783 4.48522 2.0706Z" fill="#D9A62E"/>
<path d="M6.03841 3.66981V3.66981C5.91724 5.93058 6.79628 8.13027 8.44215 9.6849V9.6849V9.6849C10.088 11.2395 10.9671 13.4392 10.8459 15.7V15.7" stroke="white" strokeLinecap="round"/>
</g>
<defs>
<clipPath id="clip0_148_11">
<rect width="13.628" height="16.8759" fill="white" transform="translate(0 2.87903) rotate(-12.1959)"/>
</clipPath>
</defs>
</svg>
