<?xml version="1.0" encoding="UTF-8"?>
<svg id="_レイヤー_1" data-name="レイヤー 1" xmlns="http://www.w3.org/2000/svg" width="61.36mm" height="49.37mm" viewBox="0 0 173.93 139.95">
  <defs>
    <style>
      .hot {
        fill: #fff;
        stroke: #0000FF;
        strokeWidth: 5px;
      }
    </style>
  </defs>
  <path class="hot" d="m13.28,97.26c-6.85-9.56-10.79-22.16-10.78-37.72V17.8c0-8.45,6.61-15.29,14.77-15.3h115.42c21.4,0,38.73,17.96,38.74,40.11.01,11.07-4.39,20.92-11.4,27.99-7,7.09-16.58,11.5-27.07,12.12-.75.04-1.48.06-2.19.06-1.57,0-3.08-.12-4.53-.32-3.67,9.42-9.49,17.7-16.91,24.12l.11-.1-.08.07c-.24.21-.54.45-.84.7h22.12v13.97c0,8.97-7.02,16.23-15.68,16.23H18.22c-8.66,0-15.68-7.26-15.68-16.23v-13.97h20.21c-3.53-2.85-6.73-6.15-9.47-9.99Zm-1.14,19.92v4.04c0,3.48,2.73,6.29,6.08,6.3h96.74c3.36,0,6.08-2.82,6.08-6.3v-4.04H12.14Zm30.65-9.94h45.45c3.88-1.47,7.17-3.13,9.68-4.62,2.66-1.58,4.51-3.01,5.23-3.65l-.05.05.08-.07c7.11-6.16,12.5-14.37,15.4-23.75l1.44-4.63,4.5,1.38c1.8.55,3.85.88,6.26.88.54,0,1.09-.02,1.65-.05,8.22-.48,15.61-3.94,20.9-9.3,5.28-5.37,8.5-12.54,8.51-20.88,0-8.35-3.25-15.86-8.53-21.34-5.29-5.47-12.54-8.83-20.61-8.84H17.27c-2.86,0-5.17,2.4-5.18,5.36v41.74c.02,13.88,3.41,24.13,8.89,31.81,5.36,7.48,12.85,12.65,21.8,15.9Z"/>
  <path class="hot" d="m132.95,22.9c10.26,0,18.57,8.32,18.58,18.58,0,10.26-8.32,18.58-18.58,18.58-3.31,0-6.35-.94-8.93-2.36l-2.17-1.19v-30.05l2.17-1.19c2.58-1.43,5.62-2.36,8.93-2.36Zm-2.72,28.35c.88.27,1.78.43,2.72.43,5.63,0,10.19-4.57,10.2-10.2,0-5.63-4.57-10.19-10.2-10.2-.94,0-1.84.17-2.72.43v19.54Z"/>
</svg>