<svg width="85" height="67" viewBox="0 0 85 67" fill="none" xmlns="http://www.w3.org/2000/svg">
<path d="M85 33.5C85 34.9029 84.4627 36.2482 83.5062 37.2402C82.5498 38.2322 81.2526 38.7895 79.9 38.7895H5.1C3.7474 38.7895 2.45019 38.2322 1.49376 37.2402C0.53732 36.2482 0 34.9029 0 33.5C0 32.0971 0.53732 30.7517 1.49376 29.7598C2.45019 28.7678 3.7474 28.2105 5.1 28.2105H79.9C81.2526 28.2105 82.5498 28.7678 83.5062 29.7598C84.4627 30.7517 85 32.0971 85 33.5ZM5.1 10.5789H79.9C81.2526 10.5789 82.5498 10.0217 83.5062 9.0297C84.4627 8.03773 85 6.69233 85 5.28947C85 3.88662 84.4627 2.54122 83.5062 1.54925C82.5498 0.557282 81.2526 0 79.9 0H5.1C3.7474 0 2.45019 0.557282 1.49376 1.54925C0.53732 2.54122 0 3.88662 0 5.28947C0 6.69233 0.53732 8.03773 1.49376 9.0297C2.45019 10.0217 3.7474 10.5789 5.1 10.5789ZM79.9 56.4211H5.1C3.7474 56.4211 2.45019 56.9783 1.49376 57.9703C0.53732 58.9623 0 60.3077 0 61.7105C0 63.1134 0.53732 64.4588 1.49376 65.4507C2.45019 66.4427 3.7474 67 5.1 67H79.9C81.2526 67 82.5498 66.4427 83.5062 65.4507C84.4627 64.4588 85 63.1134 85 61.7105C85 60.3077 84.4627 58.9623 83.5062 57.9703C82.5498 56.9783 81.2526 56.4211 79.9 56.4211Z" fill="#444444"/>
</svg>
