<svg width="177" height="177" viewBox="0 0 177 177" fill="none" xmlns="http://www.w3.org/2000/svg">
<g clipPath="url(#clip0_108_362)">
<path d="M104.208 49.6813C99.5269 47.4267 94.097 46.2305 88.5035 46.2305C81.0052 46.2371 73.8961 48.3666 68.4793 52.2229C65.6895 54.219 63.4784 56.5764 61.9117 59.2234C60.2118 62.0814 59.3127 65.2802 59.3161 68.4755C59.3127 71.6643 60.2118 74.8596 61.9117 77.7179C64.2417 81.6454 68.0026 84.9465 72.7923 87.2631C77.4662 89.5146 82.9 90.7104 88.5038 90.7139C95.9914 90.7073 103.101 88.5778 108.521 84.7183C111.308 82.7288 113.519 80.3749 115.092 77.7179C116.795 74.8596 117.691 71.6608 117.685 68.4789C117.691 65.2905 116.795 62.0917 115.092 59.2265C112.755 55.2921 108.991 51.9913 104.208 49.6813ZM106.687 72.7411C105.366 74.9827 102.978 77.013 99.9628 78.4642C96.6075 80.089 92.6457 80.9443 88.4689 80.9443C83.0694 80.9443 77.8538 79.4246 74.1544 76.771C72.4988 75.5887 71.1737 74.1955 70.315 72.7373C69.4908 71.3441 69.085 69.9509 69.085 68.4789C69.085 66.9969 69.4908 65.5968 70.315 64.2005C71.6332 61.9624 74.0213 59.9283 77.0362 58.4771C80.3919 56.8557 84.3467 56.0008 88.4789 56.0008H88.537C93.9296 56.0008 99.1418 57.5198 102.845 60.1703C104.501 61.3526 105.826 62.7458 106.684 64.2005C107.512 65.6041 107.914 67.0007 107.914 68.4755C107.914 69.944 107.516 71.3407 106.687 72.7411Z" fill="#4B4B4B"/>
<path d="M126.916 40.133C116.601 32.7716 102.961 28.7141 88.5035 28.7075C74.042 28.7141 60.3989 32.7716 50.0838 40.1299C39.3628 47.7706 33.4596 58.0857 33.4596 69.1814C33.4596 80.2598 39.3628 90.5714 50.0838 98.2091C60.4023 105.57 74.0493 109.628 88.5035 109.635C102.954 109.628 116.598 105.571 126.916 98.2125C137.637 90.5711 143.54 80.2598 143.54 69.1814C143.54 58.0892 137.637 47.7706 126.916 40.133ZM122.249 91.6818C113.3 98.0825 101.329 101.609 88.5374 101.609L88.5035 103.005V101.609H88.4693C75.6741 101.609 63.7 98.0825 54.7508 91.6818C46.1967 85.5536 41.4854 77.5612 41.4854 69.1811C41.4854 60.787 46.1967 52.7885 54.7508 46.6599C63.6962 40.2592 75.6706 36.733 88.5374 36.733C101.329 36.733 113.3 40.2592 122.246 46.6599C130.806 52.7916 135.518 60.7905 135.515 69.1811C135.518 77.5612 130.806 85.5498 122.249 91.6818Z" fill="#4B4B4B"/>
<path d="M135.787 13.7762L136.618 14.1814L136.68 14.2087L135.787 13.7762Z" fill="#4B4B4B"/>
<path d="M169.404 42.8347C162.185 30.6728 150.637 20.9572 136.683 14.2122L136.618 14.1814C122.651 7.4568 106.149 3.65165 88.5035 3.64508H88.5C64.9365 3.66202 43.4103 10.407 27.2424 21.9248L27.2393 21.9283C19.1585 27.7026 12.3997 34.7269 7.59683 42.8347C2.78983 50.9317 -0.00345383 60.1637 3.2051e-06 69.8725V107.131C-0.00345383 116.836 2.78983 126.064 7.59648 134.169C14.8186 146.33 26.3671 156.042 40.3204 162.791C54.3013 169.533 70.8232 173.348 88.5 173.355H88.5035C112.063 173.334 133.593 166.599 149.761 155.075L150.708 154.397L149.761 155.072C157.841 149.301 164.6 142.277 169.403 134.169C174.21 126.068 177.003 116.839 177 107.131V69.8725C177.003 60.1637 174.21 50.9317 169.404 42.8347ZM157.399 89.7978C151.914 99.0809 142.566 107.199 130.616 112.966C118.669 118.737 104.157 122.144 88.5035 122.144C67.6278 122.151 48.7856 116.073 35.3502 106.46C28.6287 101.657 23.2634 95.9883 19.6014 89.7981C15.9359 83.6017 13.9598 76.9044 13.9533 69.8728C13.9598 66.3539 14.4538 62.9166 15.408 59.5919C16.341 56.3285 17.7277 53.1736 19.506 50.1321L19.6014 49.9479L19.6048 49.9378L19.6556 49.8628C20.4663 48.5004 21.3797 47.1715 22.3504 45.8634C22.6536 45.4617 22.9737 45.0662 23.2869 44.6645C24.0468 43.7072 24.8474 42.7666 25.6923 41.8435C26.0498 41.4484 26.4007 41.0533 26.7754 40.6647C27.9235 39.4758 29.1262 38.3108 30.407 37.19L30.761 36.8869C32.0491 35.7796 33.4181 34.7169 34.8355 33.6812C35.3122 33.3406 35.8027 33.0067 36.2867 32.6731C37.3871 31.9098 38.5214 31.1741 39.6864 30.4623C40.2042 30.1456 40.7152 29.8252 41.2469 29.522C42.8617 28.5886 44.5207 27.6856 46.2513 26.8476L46.3875 26.7761L46.5375 26.708C48.2854 25.87 50.0976 25.0967 51.9505 24.361C52.5057 24.1397 53.0748 23.9351 53.6403 23.7208C55.085 23.1825 56.5567 22.6781 58.0522 22.2045C58.6347 22.0206 59.2138 21.8298 59.8066 21.6562C63.8811 20.457 68.1391 19.5066 72.5441 18.8284C73.1982 18.7295 73.8622 18.6479 74.5229 18.5594C76.1581 18.3378 77.8174 18.1574 79.4899 18.0177C80.1779 17.9562 80.8589 17.895 81.5476 17.8473C83.8399 17.6972 86.153 17.5987 88.5038 17.5987H88.5069C90.8473 17.5987 93.1539 17.6976 95.4393 17.8473C96.1445 17.895 96.8394 17.9596 97.5377 18.0177C99.1933 18.1608 100.832 18.3378 102.45 18.5559C103.125 18.6444 103.806 18.7295 104.474 18.8318C108.879 19.5097 113.133 20.4601 117.201 21.6593C117.787 21.8298 118.356 22.0171 118.932 22.201C120.444 22.6781 121.929 23.1891 123.388 23.7342C123.939 23.9389 124.495 24.1397 125.036 24.3541C126.937 25.1105 128.797 25.9008 130.586 26.7622L130.616 26.7761H130.613L130.705 26.8238C132.463 27.6756 134.145 28.5917 135.791 29.5424C136.285 29.8252 136.762 30.1249 137.242 30.4181C138.472 31.1675 139.664 31.9409 140.819 32.7412C141.248 33.0409 141.681 33.3337 142.103 33.6369C145.111 35.8276 147.84 38.1881 150.259 40.6993C150.606 41.0567 150.933 41.4249 151.267 41.7893C152.133 42.7396 152.957 43.7103 153.737 44.698C154.04 45.0797 154.353 45.4613 154.639 45.853C155.61 47.1577 156.52 48.4828 157.331 49.8417L157.399 49.9475C158.234 51.3545 158.952 52.7989 159.609 54.2602L159.824 54.6795C160.472 56.1681 161.003 57.6906 161.459 59.2272L161.592 59.5881C162.546 62.9166 163.04 66.3504 163.047 69.8725C163.039 76.9041 161.064 83.6014 157.399 89.7978Z" fill="#4B4B4B"/>
</g>
<defs>
<clipPath id="clip0_108_362">
<rect width="177" height="177" fill="white"/>
</clipPath>
</defs>
</svg>
