<svg width="88" height="68" viewBox="0 0 88 68" fill="none" xmlns="http://www.w3.org/2000/svg">
<path d="M0 0V46.738C0 55.8366 5.17828 63.2113 11.5617 63.2113H59.1848C65.5682 63.2113 70.7465 55.8366 70.7465 46.738V0H0Z" fill="#D9A62E"/>
<path d="M52.8713 23.9437H17.8829C8.00647 23.9437 0 33.806 0 45.9718C0 58.1377 8.00647 68 17.8829 68H52.8713C62.7478 68 70.7543 58.1377 70.7543 45.9718C70.7543 33.806 62.7478 23.9437 52.8713 23.9437Z" fill="#D9A62E"/>
<path d="M54.8151 17.2394V36.3656C54.8151 40.0912 56.8056 43.0985 59.2625 43.0985H77.5809C80.0379 43.0985 82.0283 40.0816 82.0283 36.3656V17.2394H54.8151Z" stroke="#D9A62E" strokeWidth="10.2974" strokeMiterlimit="10"/>
</svg>
