<?xml version="1.0" encoding="UTF-8"?>
<svg id="_レイヤー_1" data-name="レイヤー 1" xmlns="http://www.w3.org/2000/svg" width="67.98mm" height="69.96mm" viewBox="0 0 192.71 198.3">
  <defs>
    <style>
      .cls-1 {
        fill: #fff;
        stroke: #fff;
        strokeMiterlimit: 10;
        strokeWidth: 10px;
      }
    </style>
  </defs>
  <path class="cls-1" d="m58.49,54.59c6.31-5.75,5.8-16.6-1.15-24.24l19.77-18.13c-1.92-8.79-17.75-9.11-24.04-3.34-6.29,5.77-5.73,16.61,1.24,24.22l-19.84,18.06c2.93,8.52,17.72,9.17,24.03,3.43Z"/>
  <path class="cls-1" d="m110.25,56.04c6.31-5.75,5.8-16.6-1.15-24.24l19.77-18.13c-1.92-8.79-17.75-9.11-24.04-3.34-6.29,5.77-5.73,16.61,1.24,24.22l-19.84,18.06c2.93,8.52,17.72,9.17,24.03,3.43Z"/>
  <path class="cls-1" d="m155.83,98.29v-22.55H5v80.8c0,5.41,1.31,10.47,3.58,14.78,6.07,12.98,19.26,21.98,34.55,21.98h74.59c15.43,0,28.72-9.17,34.71-22.34,2.15-4.23,3.39-9.15,3.39-14.42v-.65c0-.22.02-.45.02-.67s-.01-.45-.02-.67v-8.35c15.94.21,31.88-2.38,31.88-8.37v-39.54h-31.88Z"/>
</svg>