<svg width="176" height="197" viewBox="0 0 176 197" fill="none" xmlns="http://www.w3.org/2000/svg">
<path d="M46.5 5H129.5C135.003 5 140.281 7.18615 144.172 11.0775C148.064 14.9689 150.25 20.2468 150.25 25.75V44.6325C150.251 52.6857 152.126 60.6282 155.728 67.831L165.522 87.419C169.124 94.6218 170.999 102.564 171 110.618V171C171 176.503 168.814 181.781 164.922 185.672C161.031 189.564 155.753 191.75 150.25 191.75H25.75C20.2468 191.75 14.9689 189.564 11.0775 185.672C7.18615 181.781 5 176.503 5 171V110.618C5.00055 102.564 6.87605 94.6218 10.478 87.419L25.75 56.875V25.75C25.75 20.2468 27.9362 14.9689 31.8275 11.0775C35.7189 7.18615 40.9968 5 46.5 5Z" stroke="#F74040" strokeWidth="10" strokeLinecap="round" stroke-linejoin="round"/>
<path d="M25.75 191.75C31.2532 191.75 36.5311 189.564 40.4225 185.672C44.3138 181.781 46.5 176.503 46.5 171V110.618C46.4995 102.564 44.6239 94.6218 41.022 87.419L25.75 56.875M77.625 46.5H98.375M88 129.5C88 135.003 90.1862 140.281 94.0775 144.172C97.9689 148.064 103.247 150.25 108.75 150.25C114.253 150.25 119.531 148.064 123.422 144.172C127.314 140.281 129.5 135.003 129.5 129.5C129.5 123.997 127.314 118.719 123.422 114.828C119.531 110.936 114.253 108.75 108.75 108.75C103.247 108.75 97.9689 110.936 94.0775 114.828C90.1862 118.719 88 123.997 88 129.5Z" stroke="#F74040" strokeWidth="10" strokeLinecap="round" stroke-linejoin="round"/>
<rect x="74" y="98" width="70" height="70" fill="#2DDA67"/>
</svg>
