<svg width="161" height="161" viewBox="0 0 161 161" fill="none" xmlns="http://www.w3.org/2000/svg">
<path d="M159.536 25.1635C158.117 21.8158 155.769 18.9901 152.801 16.9846C149.843 14.9815 146.226 13.8029 142.396 13.8029H130.354H123.645H123.238H19.0599C16.904 13.8029 14.8144 14.245 12.9239 15.0456C10.0869 16.2484 7.69457 18.2364 5.99653 20.746C4.29848 23.2535 3.29883 26.3244 3.30324 29.5617V59.0361C3.30104 67.7876 5.08116 76.1612 8.29581 83.7653C13.1249 95.1746 21.1711 104.859 31.3047 111.707C41.436 118.555 53.6965 122.563 66.8284 122.559C75.5803 122.561 83.9557 120.784 91.5577 117.566C102.967 112.737 112.652 104.691 119.502 94.5576C120.815 92.614 122.022 90.5886 123.121 88.4947C123.296 88.4991 123.469 88.5123 123.645 88.5123C128.784 88.5145 133.715 87.4664 138.188 85.5737C144.903 82.7323 150.59 78.0073 154.616 72.0484C158.642 66.0962 161.004 58.87 161 51.16C161 45.4155 161 40.7302 161 37.4775C161 34.2248 161 32.4116 161 32.4116C161 29.8576 160.478 27.3923 159.536 25.1635ZM116.123 59.0357C116.123 65.8613 114.745 72.3267 112.253 78.2215C108.517 87.0573 102.255 94.5991 94.3855 99.9172C86.5075 105.23 77.0617 108.326 66.8284 108.33C60.0029 108.33 53.5352 106.953 47.6427 104.459C38.805 100.724 31.265 94.462 25.9473 86.5928C20.6293 78.7145 17.5341 69.2687 17.5341 59.0357V29.5614C17.5341 29.3338 17.5737 29.1479 17.6489 28.9712C17.7596 28.7058 17.9627 28.458 18.2105 28.2923C18.4624 28.1263 18.719 28.0379 19.0595 28.0335H77.495V41.4018L65.4577 52.3005L65.7983 51.9929C63.649 53.9388 62.4242 56.7028 62.4242 59.604V72.5522C62.4198 75.3713 63.5808 77.9718 65.4313 79.8135C67.2731 81.6644 69.8711 82.8251 72.6927 82.821H92.8227C95.644 82.8254 98.2423 81.6644 100.084 79.8135C101.935 77.9718 103.096 75.3716 103.091 72.5522V59.604C103.091 56.7028 101.867 53.9388 99.7171 51.9929L87.6578 41.0701V28.0335H116.123L116.123 59.0357ZM82.7577 50.348L92.8934 59.5241L92.9287 59.604V72.5522L92.8975 72.6251L92.8224 72.6563H72.6924L72.6172 72.6251L72.5883 72.5522V59.604L72.6235 59.5241L82.7577 50.348ZM146.769 37.4771C146.769 40.7295 146.769 45.4152 146.769 51.1596C146.769 54.3702 146.123 57.3971 144.956 60.1568C143.205 64.2981 140.264 67.8426 136.572 70.3369C134.192 71.94 131.519 73.1031 128.638 73.7355C129.757 69.0124 130.354 64.0906 130.354 59.0361V28.0335H142.396C143.019 28.0379 143.576 28.1574 144.098 28.374C144.872 28.7011 145.553 29.2652 146.027 29.9658C146.5 30.6733 146.767 31.4761 146.77 32.4069C146.769 32.4069 146.769 34.2248 146.769 37.4771Z" fill="#4B4B4B"/>
<path d="M133.658 132.969H0V147.197H133.658V132.969Z" fill="#4B4B4B"/>
</svg>
